<svg xmlns="http://www.w3.org/2000/svg" xmlns:xlink="http://www.w3.org/1999/xlink" width="150" zoomAndPan="magnify" viewBox="0 0 112.5 30.000001" height="40" preserveAspectRatio="xMidYMid meet" version="1.0"><defs><clipPath id="a6c4bd80ea"><path d="M 43.121094 0 L 52.457031 0 L 52.457031 28.722656 L 43.121094 28.722656 Z M 43.121094 0 " clip-rule="nonzero"/></clipPath><clipPath id="fcf64e550a"><path d="M 52.578125 0 L 62.464844 0 L 62.464844 28.722656 L 52.578125 28.722656 Z M 52.578125 0 " clip-rule="nonzero"/></clipPath><clipPath id="b043220a2b"><path d="M 62.261719 0.0078125 L 68.671875 0.0078125 L 68.671875 28.722656 L 62.261719 28.722656 Z M 62.261719 0.0078125 " clip-rule="nonzero"/></clipPath></defs><g clip-path="url(#a6c4bd80ea)"><path fill="#021bff" d="M 43.121094 9.203125 L 43.121094 24.027344 L 47.800781 28.707031 L 51.988281 24.523438 L 49.039062 21.574219 L 49.039062 5.785156 L 43.117188 9.203125 Z M 53.121094 3.429688 L 53.121094 24.027344 L 57.804688 28.707031 L 61.988281 24.523438 L 59.039062 21.574219 L 59.039062 0.0117188 Z M 63.722656 2.714844 L 63.722656 20.457031 L 68.738281 15.441406 L 68.738281 5.609375 Z M 63.722656 2.714844 " fill-opacity="1" fill-rule="evenodd"/></g><g clip-path="url(#fcf64e550a)"><path fill="#021bff" d="M 43.121094 9.203125 L 43.121094 24.027344 L 47.800781 28.707031 L 51.988281 24.523438 L 49.039062 21.574219 L 49.039062 5.785156 L 43.117188 9.203125 Z M 53.121094 3.429688 L 53.121094 24.027344 L 57.804688 28.707031 L 61.988281 24.523438 L 59.039062 21.574219 L 59.039062 0.0117188 Z M 63.722656 2.714844 L 63.722656 20.457031 L 68.738281 15.441406 L 68.738281 5.609375 Z M 63.722656 2.714844 " fill-opacity="1" fill-rule="evenodd"/></g><g clip-path="url(#b043220a2b)"><path fill="#021bff" d="M 43.121094 9.203125 L 43.121094 24.027344 L 47.800781 28.707031 L 51.988281 24.523438 L 49.039062 21.574219 L 49.039062 5.785156 L 43.117188 9.203125 Z M 53.121094 3.429688 L 53.121094 24.027344 L 57.804688 28.707031 L 61.988281 24.523438 L 59.039062 21.574219 L 59.039062 0.0117188 Z M 63.722656 2.714844 L 63.722656 20.457031 L 68.738281 15.441406 L 68.738281 5.609375 Z M 63.722656 2.714844 " fill-opacity="1" fill-rule="evenodd"/></g></svg>