<svg xmlns="http://www.w3.org/2000/svg" xmlns:xlink="http://www.w3.org/1999/xlink" width="150" zoomAndPan="magnify" viewBox="0 0 112.5 30.000001" height="40" preserveAspectRatio="xMidYMid meet" version="1.0"><defs><g/><clipPath id="629b627016"><path d="M 8 0 L 104 0 L 104 29.03125 L 8 29.03125 Z M 8 0 " clip-rule="nonzero"/></clipPath><clipPath id="ca602ab5a3"><path d="M 26 0 L 40 0 L 40 29.03125 L 26 29.03125 Z M 26 0 " clip-rule="nonzero"/></clipPath><clipPath id="15ef1578d9"><path d="M 0.476562 1.59375 L 9.117188 1.59375 L 9.117188 28.171875 L 0.476562 28.171875 Z M 0.476562 1.59375 " clip-rule="nonzero"/></clipPath><clipPath id="e22f8df3f1"><path d="M 9.230469 1.59375 L 18.378906 1.59375 L 18.378906 28.171875 L 9.230469 28.171875 Z M 9.230469 1.59375 " clip-rule="nonzero"/></clipPath><clipPath id="631d2da230"><path d="M 18.191406 1.597656 L 24.121094 1.597656 L 24.121094 28.171875 L 18.191406 28.171875 Z M 18.191406 1.597656 " clip-rule="nonzero"/></clipPath><clipPath id="b0caf6f742"><rect x="0" width="55" y="0" height="17"/></clipPath><clipPath id="40d17f4151"><path d="M 41 12 L 83 12 L 83 29.03125 L 41 29.03125 Z M 41 12 " clip-rule="nonzero"/></clipPath><clipPath id="50138eafb1"><rect x="0" width="42" y="0" height="18"/></clipPath><clipPath id="2cc34396a4"><rect x="0" width="96" y="0" height="30"/></clipPath></defs><g clip-path="url(#629b627016)"><g transform="matrix(1, 0, 0, 1, 8, 0.000000000000005692)"><g clip-path="url(#2cc34396a4)"><g clip-path="url(#ca602ab5a3)"><path stroke-linecap="round" transform="matrix(0.00520248, -1.134081, 1.134081, 0.00520248, 32.607155, 27.982878)" fill="none" stroke-linejoin="miter" d="M 0.50041 0.499103 L 22.358689 0.498719 " stroke="#ffffff" stroke-width="1" stroke-opacity="1" stroke-miterlimit="4"/></g><g clip-path="url(#15ef1578d9)"><path fill="#021bff" d="M 0.476562 10.109375 L 0.476562 23.824219 L 4.808594 28.15625 L 8.683594 24.285156 L 5.953125 21.558594 L 5.953125 6.949219 Z M 9.730469 4.765625 L 9.730469 23.824219 L 14.0625 28.15625 L 17.9375 24.285156 L 15.207031 21.558594 L 15.207031 1.605469 Z M 19.542969 4.105469 L 19.542969 20.523438 L 24.183594 15.878906 L 24.183594 6.785156 Z M 19.542969 4.105469 " fill-opacity="1" fill-rule="evenodd"/></g><g clip-path="url(#e22f8df3f1)"><path fill="#021bff" d="M 0.476562 10.109375 L 0.476562 23.824219 L 4.808594 28.15625 L 8.683594 24.285156 L 5.953125 21.558594 L 5.953125 6.949219 Z M 9.730469 4.765625 L 9.730469 23.824219 L 14.0625 28.15625 L 17.9375 24.285156 L 15.207031 21.558594 L 15.207031 1.605469 Z M 19.542969 4.105469 L 19.542969 20.523438 L 24.183594 15.878906 L 24.183594 6.785156 Z M 19.542969 4.105469 " fill-opacity="1" fill-rule="evenodd"/></g><g clip-path="url(#631d2da230)"><path fill="#021bff" d="M 0.476562 10.109375 L 0.476562 23.824219 L 4.808594 28.15625 L 8.683594 24.285156 L 5.953125 21.558594 L 5.953125 6.949219 Z M 9.730469 4.765625 L 9.730469 23.824219 L 14.0625 28.15625 L 17.9375 24.285156 L 15.207031 21.558594 L 15.207031 1.605469 Z M 19.542969 4.105469 L 19.542969 20.523438 L 24.183594 15.878906 L 24.183594 6.785156 Z M 19.542969 4.105469 " fill-opacity="1" fill-rule="evenodd"/></g><g transform="matrix(1, 0, 0, 1, 41, 0.000000000000005692)"><g clip-path="url(#b0caf6f742)"><g fill="#ffffff" fill-opacity="1"><g transform="translate(0.817535, 12.049478)"><g><path d="M 5.140625 0.140625 C 4.492188 0.140625 3.894531 0.0234375 3.34375 -0.203125 C 2.789062 -0.441406 2.300781 -0.769531 1.875 -1.1875 C 1.457031 -1.601562 1.132812 -2.085938 0.90625 -2.640625 C 0.675781 -3.203125 0.5625 -3.804688 0.5625 -4.453125 C 0.5625 -5.085938 0.675781 -5.679688 0.90625 -6.234375 C 1.132812 -6.796875 1.457031 -7.285156 1.875 -7.703125 C 2.300781 -8.117188 2.789062 -8.441406 3.34375 -8.671875 C 3.894531 -8.910156 4.492188 -9.03125 5.140625 -9.03125 C 5.773438 -9.03125 6.367188 -8.910156 6.921875 -8.671875 C 7.484375 -8.441406 7.972656 -8.117188 8.390625 -7.703125 C 8.804688 -7.285156 9.128906 -6.796875 9.359375 -6.234375 C 9.597656 -5.679688 9.71875 -5.085938 9.71875 -4.453125 C 9.71875 -3.804688 9.597656 -3.203125 9.359375 -2.640625 C 9.128906 -2.085938 8.804688 -1.601562 8.390625 -1.1875 C 7.972656 -0.769531 7.484375 -0.441406 6.921875 -0.203125 C 6.367188 0.0234375 5.773438 0.140625 5.140625 0.140625 Z M 5.140625 -0.765625 C 5.816406 -0.765625 6.425781 -0.925781 6.96875 -1.25 C 7.507812 -1.570312 7.9375 -2.015625 8.25 -2.578125 C 8.570312 -3.140625 8.734375 -3.765625 8.734375 -4.453125 C 8.734375 -5.140625 8.570312 -5.757812 8.25 -6.3125 C 7.9375 -6.875 7.507812 -7.316406 6.96875 -7.640625 C 6.425781 -7.960938 5.816406 -8.125 5.140625 -8.125 C 4.460938 -8.125 3.851562 -7.960938 3.3125 -7.640625 C 2.769531 -7.316406 2.335938 -6.875 2.015625 -6.3125 C 1.703125 -5.757812 1.546875 -5.140625 1.546875 -4.453125 C 1.546875 -3.765625 1.703125 -3.140625 2.015625 -2.578125 C 2.335938 -2.015625 2.769531 -1.570312 3.3125 -1.25 C 3.851562 -0.925781 4.460938 -0.765625 5.140625 -0.765625 Z M 5.140625 -0.765625 "/></g></g></g><g fill="#ffffff" fill-opacity="1"><g transform="translate(11.085463, 12.049478)"><g><path d="M 0.796875 2.59375 L 0.796875 -6.359375 L 1.734375 -6.359375 L 1.734375 -5.671875 C 2.273438 -6.203125 2.957031 -6.46875 3.78125 -6.46875 C 4.382812 -6.46875 4.925781 -6.320312 5.40625 -6.03125 C 5.894531 -5.738281 6.28125 -5.34375 6.5625 -4.84375 C 6.84375 -4.351562 6.984375 -3.800781 6.984375 -3.1875 C 6.984375 -2.570312 6.84375 -2.015625 6.5625 -1.515625 C 6.28125 -1.023438 5.894531 -0.628906 5.40625 -0.328125 C 4.925781 -0.0351562 4.378906 0.109375 3.765625 0.109375 C 3.398438 0.109375 3.039062 0.046875 2.6875 -0.078125 C 2.34375 -0.210938 2.023438 -0.398438 1.734375 -0.640625 L 1.734375 2.59375 Z M 3.703125 -0.71875 C 4.148438 -0.71875 4.550781 -0.828125 4.90625 -1.046875 C 5.257812 -1.265625 5.539062 -1.554688 5.75 -1.921875 C 5.957031 -2.296875 6.0625 -2.710938 6.0625 -3.171875 C 6.0625 -3.640625 5.957031 -4.0625 5.75 -4.4375 C 5.539062 -4.8125 5.257812 -5.101562 4.90625 -5.3125 C 4.550781 -5.53125 4.148438 -5.640625 3.703125 -5.640625 C 3.296875 -5.640625 2.921875 -5.5625 2.578125 -5.40625 C 2.242188 -5.25 1.960938 -5.03125 1.734375 -4.75 L 1.734375 -1.59375 C 1.960938 -1.320312 2.25 -1.109375 2.59375 -0.953125 C 2.9375 -0.796875 3.304688 -0.71875 3.703125 -0.71875 Z M 3.703125 -0.71875 "/></g></g></g><g fill="#ffffff" fill-opacity="1"><g transform="translate(18.573816, 12.049478)"><g><path d="M 3.78125 0.109375 C 3.175781 0.109375 2.625 -0.0351562 2.125 -0.328125 C 1.632812 -0.617188 1.242188 -1.015625 0.953125 -1.515625 C 0.660156 -2.015625 0.515625 -2.570312 0.515625 -3.1875 C 0.515625 -3.800781 0.648438 -4.351562 0.921875 -4.84375 C 1.203125 -5.34375 1.578125 -5.738281 2.046875 -6.03125 C 2.523438 -6.320312 3.054688 -6.46875 3.640625 -6.46875 C 4.210938 -6.46875 4.722656 -6.320312 5.171875 -6.03125 C 5.628906 -5.738281 5.988281 -5.34375 6.25 -4.84375 C 6.519531 -4.351562 6.65625 -3.800781 6.65625 -3.1875 L 6.65625 -2.890625 L 1.4375 -2.890625 C 1.488281 -2.484375 1.617188 -2.113281 1.828125 -1.78125 C 2.046875 -1.445312 2.328125 -1.1875 2.671875 -1 C 3.023438 -0.8125 3.410156 -0.71875 3.828125 -0.71875 C 4.148438 -0.71875 4.46875 -0.765625 4.78125 -0.859375 C 5.101562 -0.960938 5.367188 -1.109375 5.578125 -1.296875 L 6.15625 -0.671875 C 5.457031 -0.148438 4.664062 0.109375 3.78125 0.109375 Z M 1.453125 -3.640625 L 5.71875 -3.640625 C 5.664062 -4.023438 5.539062 -4.367188 5.34375 -4.671875 C 5.144531 -4.972656 4.894531 -5.207031 4.59375 -5.375 C 4.300781 -5.550781 3.976562 -5.640625 3.625 -5.640625 C 3.070312 -5.640625 2.59375 -5.453125 2.1875 -5.078125 C 1.789062 -4.703125 1.546875 -4.222656 1.453125 -3.640625 Z M 1.453125 -3.640625 "/></g></g></g><g fill="#ffffff" fill-opacity="1"><g transform="translate(25.732173, 12.049478)"><g><path d="M 0.796875 0 L 0.796875 -6.359375 L 1.734375 -6.359375 L 1.734375 -5.609375 C 2.234375 -6.191406 2.90625 -6.484375 3.75 -6.484375 C 4.226562 -6.484375 4.648438 -6.378906 5.015625 -6.171875 C 5.390625 -5.972656 5.679688 -5.6875 5.890625 -5.3125 C 6.097656 -4.945312 6.203125 -4.519531 6.203125 -4.03125 L 6.203125 0 L 5.265625 0 L 5.265625 -3.84375 C 5.265625 -4.40625 5.101562 -4.847656 4.78125 -5.171875 C 4.46875 -5.503906 4.039062 -5.671875 3.5 -5.671875 C 3.113281 -5.671875 2.769531 -5.582031 2.46875 -5.40625 C 2.175781 -5.238281 1.929688 -5 1.734375 -4.6875 L 1.734375 0 Z M 0.796875 0 "/></g></g></g><g fill="#ffffff" fill-opacity="1"><g transform="translate(32.700146, 12.049478)"><g><path d="M 3.703125 0.109375 C 3.109375 0.109375 2.566406 -0.0351562 2.078125 -0.328125 C 1.597656 -0.628906 1.21875 -1.023438 0.9375 -1.515625 C 0.65625 -2.015625 0.515625 -2.570312 0.515625 -3.1875 C 0.515625 -3.800781 0.65625 -4.351562 0.9375 -4.84375 C 1.21875 -5.34375 1.597656 -5.738281 2.078125 -6.03125 C 2.566406 -6.320312 3.113281 -6.46875 3.71875 -6.46875 C 4.488281 -6.46875 5.164062 -6.222656 5.75 -5.734375 L 5.75 -8.890625 L 6.6875 -9.109375 L 6.6875 0 L 5.765625 0 L 5.765625 -0.671875 C 5.203125 -0.148438 4.515625 0.109375 3.703125 0.109375 Z M 3.796875 -0.71875 C 4.191406 -0.71875 4.5625 -0.796875 4.90625 -0.953125 C 5.25 -1.109375 5.53125 -1.328125 5.75 -1.609375 L 5.75 -4.765625 C 5.53125 -5.035156 5.25 -5.25 4.90625 -5.40625 C 4.5625 -5.5625 4.191406 -5.640625 3.796875 -5.640625 C 3.359375 -5.640625 2.957031 -5.53125 2.59375 -5.3125 C 2.238281 -5.101562 1.957031 -4.816406 1.75 -4.453125 C 1.539062 -4.085938 1.4375 -3.671875 1.4375 -3.203125 C 1.4375 -2.734375 1.539062 -2.3125 1.75 -1.9375 C 1.957031 -1.570312 2.238281 -1.273438 2.59375 -1.046875 C 2.957031 -0.828125 3.359375 -0.71875 3.796875 -0.71875 Z M 3.796875 -0.71875 "/></g></g></g><g fill="#ffffff" fill-opacity="1"><g transform="translate(40.188499, 12.049478)"><g><path d="M 3.78125 0.109375 C 3.175781 0.109375 2.625 -0.0351562 2.125 -0.328125 C 1.632812 -0.617188 1.242188 -1.015625 0.953125 -1.515625 C 0.660156 -2.015625 0.515625 -2.570312 0.515625 -3.1875 C 0.515625 -3.800781 0.648438 -4.351562 0.921875 -4.84375 C 1.203125 -5.34375 1.578125 -5.738281 2.046875 -6.03125 C 2.523438 -6.320312 3.054688 -6.46875 3.640625 -6.46875 C 4.210938 -6.46875 4.722656 -6.320312 5.171875 -6.03125 C 5.628906 -5.738281 5.988281 -5.34375 6.25 -4.84375 C 6.519531 -4.351562 6.65625 -3.800781 6.65625 -3.1875 L 6.65625 -2.890625 L 1.4375 -2.890625 C 1.488281 -2.484375 1.617188 -2.113281 1.828125 -1.78125 C 2.046875 -1.445312 2.328125 -1.1875 2.671875 -1 C 3.023438 -0.8125 3.410156 -0.71875 3.828125 -0.71875 C 4.148438 -0.71875 4.46875 -0.765625 4.78125 -0.859375 C 5.101562 -0.960938 5.367188 -1.109375 5.578125 -1.296875 L 6.15625 -0.671875 C 5.457031 -0.148438 4.664062 0.109375 3.78125 0.109375 Z M 1.453125 -3.640625 L 5.71875 -3.640625 C 5.664062 -4.023438 5.539062 -4.367188 5.34375 -4.671875 C 5.144531 -4.972656 4.894531 -5.207031 4.59375 -5.375 C 4.300781 -5.550781 3.976562 -5.640625 3.625 -5.640625 C 3.070312 -5.640625 2.59375 -5.453125 2.1875 -5.078125 C 1.789062 -4.703125 1.546875 -4.222656 1.453125 -3.640625 Z M 1.453125 -3.640625 "/></g></g></g><g fill="#ffffff" fill-opacity="1"><g transform="translate(46.902389, 12.049478)"><g><path d="M 0.0625 0 L 2.5625 -3.28125 L 0.1875 -6.359375 L 1.3125 -6.359375 L 3.109375 -3.96875 L 4.921875 -6.359375 L 6 -6.359375 L 3.640625 -3.296875 L 6.15625 0 L 5.046875 0 L 3.09375 -2.59375 L 1.125 0 Z M 0.0625 0 "/></g></g></g></g></g><g clip-path="url(#40d17f4151)"><g transform="matrix(1, 0, 0, 1, 41, 12)"><g clip-path="url(#50138eafb1)"><g fill="#ffffff" fill-opacity="1"><g transform="translate(1.269401, 13.48848)"><g><path d="M 0.84375 0 L 0.84375 -8.890625 L 2.4375 -8.890625 L 2.4375 -4.84375 L 6.53125 -8.890625 L 8.5 -8.890625 L 4.046875 -4.625 L 8.65625 0 L 6.53125 0 L 2.4375 -4.171875 L 2.4375 0 Z M 0.84375 0 "/></g></g></g><g fill="#ffffff" fill-opacity="1"><g transform="translate(9.811193, 13.48848)"><g><path d="M 1.46875 -7.453125 C 1.226562 -7.453125 1.019531 -7.539062 0.84375 -7.71875 C 0.664062 -7.894531 0.578125 -8.101562 0.578125 -8.34375 C 0.578125 -8.59375 0.664062 -8.800781 0.84375 -8.96875 C 1.019531 -9.144531 1.226562 -9.234375 1.46875 -9.234375 C 1.71875 -9.234375 1.925781 -9.144531 2.09375 -8.96875 C 2.257812 -8.800781 2.34375 -8.59375 2.34375 -8.34375 C 2.34375 -8.101562 2.257812 -7.894531 2.09375 -7.71875 C 1.925781 -7.539062 1.71875 -7.453125 1.46875 -7.453125 Z M 0.71875 0 L 0.71875 -6.546875 L 2.21875 -6.546875 L 2.21875 0 Z M 0.71875 0 "/></g></g></g><g fill="#ffffff" fill-opacity="1"><g transform="translate(12.743074, 13.48848)"><g><path d="M 3.875 0.125 C 3.226562 0.125 2.640625 -0.0234375 2.109375 -0.328125 C 1.585938 -0.628906 1.175781 -1.035156 0.875 -1.546875 C 0.570312 -2.054688 0.421875 -2.628906 0.421875 -3.265625 C 0.421875 -3.898438 0.570312 -4.472656 0.875 -4.984375 C 1.175781 -5.492188 1.585938 -5.898438 2.109375 -6.203125 C 2.640625 -6.515625 3.226562 -6.671875 3.875 -6.671875 C 4.519531 -6.671875 5.101562 -6.515625 5.625 -6.203125 C 6.144531 -5.898438 6.554688 -5.492188 6.859375 -4.984375 C 7.160156 -4.472656 7.3125 -3.898438 7.3125 -3.265625 C 7.3125 -2.628906 7.160156 -2.054688 6.859375 -1.546875 C 6.554688 -1.035156 6.144531 -0.628906 5.625 -0.328125 C 5.101562 -0.0234375 4.519531 0.125 3.875 0.125 Z M 3.875 -1.1875 C 4.238281 -1.1875 4.570312 -1.273438 4.875 -1.453125 C 5.175781 -1.640625 5.410156 -1.890625 5.578125 -2.203125 C 5.753906 -2.523438 5.84375 -2.878906 5.84375 -3.265625 C 5.84375 -3.648438 5.753906 -4 5.578125 -4.3125 C 5.410156 -4.632812 5.175781 -4.882812 4.875 -5.0625 C 4.570312 -5.25 4.238281 -5.34375 3.875 -5.34375 C 3.5 -5.34375 3.160156 -5.25 2.859375 -5.0625 C 2.554688 -4.882812 2.316406 -4.632812 2.140625 -4.3125 C 1.972656 -4 1.890625 -3.648438 1.890625 -3.265625 C 1.890625 -2.878906 1.972656 -2.523438 2.140625 -2.203125 C 2.316406 -1.890625 2.554688 -1.640625 2.859375 -1.453125 C 3.160156 -1.273438 3.5 -1.1875 3.875 -1.1875 Z M 3.875 -1.1875 "/></g></g></g><g fill="#ffffff" fill-opacity="1"><g transform="translate(20.47257, 13.48848)"><g><path d="M 3.0625 0.125 C 1.863281 0.125 0.882812 -0.179688 0.125 -0.796875 L 0.921875 -1.796875 C 1.628906 -1.273438 2.332031 -1.015625 3.03125 -1.015625 C 3.457031 -1.015625 3.800781 -1.09375 4.0625 -1.25 C 4.320312 -1.40625 4.453125 -1.609375 4.453125 -1.859375 C 4.453125 -2.253906 4.140625 -2.492188 3.515625 -2.578125 L 2.296875 -2.75 C 0.984375 -2.945312 0.328125 -3.578125 0.328125 -4.640625 C 0.328125 -5.242188 0.566406 -5.726562 1.046875 -6.09375 C 1.535156 -6.46875 2.175781 -6.65625 2.96875 -6.65625 C 3.9375 -6.65625 4.820312 -6.378906 5.625 -5.828125 L 4.890625 -4.859375 C 4.191406 -5.296875 3.507812 -5.515625 2.84375 -5.515625 C 2.5 -5.515625 2.21875 -5.441406 2 -5.296875 C 1.78125 -5.148438 1.671875 -4.96875 1.671875 -4.75 C 1.671875 -4.53125 1.75 -4.363281 1.90625 -4.25 C 2.0625 -4.144531 2.3125 -4.066406 2.65625 -4.015625 L 3.875 -3.84375 C 4.53125 -3.75 5.023438 -3.539062 5.359375 -3.21875 C 5.703125 -2.90625 5.875 -2.492188 5.875 -1.984375 C 5.875 -1.585938 5.75 -1.226562 5.5 -0.90625 C 5.25 -0.582031 4.910156 -0.328125 4.484375 -0.140625 C 4.066406 0.0351562 3.59375 0.125 3.0625 0.125 Z M 3.0625 0.125 "/></g></g></g><g fill="#ffffff" fill-opacity="1"><g transform="translate(26.6029, 13.48848)"><g><path d="M 3.828125 0.125 C 3.179688 0.125 2.601562 -0.0234375 2.09375 -0.328125 C 1.582031 -0.628906 1.175781 -1.035156 0.875 -1.546875 C 0.570312 -2.054688 0.421875 -2.632812 0.421875 -3.28125 C 0.421875 -3.914062 0.570312 -4.488281 0.875 -5 C 1.175781 -5.507812 1.582031 -5.914062 2.09375 -6.21875 C 2.601562 -6.519531 3.179688 -6.671875 3.828125 -6.671875 C 4.328125 -6.671875 4.8125 -6.570312 5.28125 -6.375 C 5.75 -6.175781 6.148438 -5.898438 6.484375 -5.546875 L 5.546875 -4.546875 C 5.066406 -5.078125 4.5 -5.34375 3.84375 -5.34375 C 3.476562 -5.34375 3.148438 -5.25 2.859375 -5.0625 C 2.566406 -4.882812 2.332031 -4.632812 2.15625 -4.3125 C 1.988281 -4 1.90625 -3.65625 1.90625 -3.28125 C 1.90625 -2.882812 1.988281 -2.523438 2.15625 -2.203125 C 2.332031 -1.890625 2.570312 -1.640625 2.875 -1.453125 C 3.175781 -1.273438 3.515625 -1.1875 3.890625 -1.1875 C 4.492188 -1.1875 5.039062 -1.441406 5.53125 -1.953125 L 6.4375 -1 C 6.101562 -0.644531 5.707031 -0.367188 5.25 -0.171875 C 4.789062 0.0234375 4.316406 0.125 3.828125 0.125 Z M 3.828125 0.125 "/></g></g></g><g fill="#ffffff" fill-opacity="1"><g transform="translate(33.088469, 13.48848)"><g><path d="M 3.875 0.125 C 3.226562 0.125 2.640625 -0.0234375 2.109375 -0.328125 C 1.585938 -0.628906 1.175781 -1.035156 0.875 -1.546875 C 0.570312 -2.054688 0.421875 -2.628906 0.421875 -3.265625 C 0.421875 -3.898438 0.570312 -4.472656 0.875 -4.984375 C 1.175781 -5.492188 1.585938 -5.898438 2.109375 -6.203125 C 2.640625 -6.515625 3.226562 -6.671875 3.875 -6.671875 C 4.519531 -6.671875 5.101562 -6.515625 5.625 -6.203125 C 6.144531 -5.898438 6.554688 -5.492188 6.859375 -4.984375 C 7.160156 -4.472656 7.3125 -3.898438 7.3125 -3.265625 C 7.3125 -2.628906 7.160156 -2.054688 6.859375 -1.546875 C 6.554688 -1.035156 6.144531 -0.628906 5.625 -0.328125 C 5.101562 -0.0234375 4.519531 0.125 3.875 0.125 Z M 3.875 -1.1875 C 4.238281 -1.1875 4.570312 -1.273438 4.875 -1.453125 C 5.175781 -1.640625 5.410156 -1.890625 5.578125 -2.203125 C 5.753906 -2.523438 5.84375 -2.878906 5.84375 -3.265625 C 5.84375 -3.648438 5.753906 -4 5.578125 -4.3125 C 5.410156 -4.632812 5.175781 -4.882812 4.875 -5.0625 C 4.570312 -5.25 4.238281 -5.34375 3.875 -5.34375 C 3.5 -5.34375 3.160156 -5.25 2.859375 -5.0625 C 2.554688 -4.882812 2.316406 -4.632812 2.140625 -4.3125 C 1.972656 -4 1.890625 -3.648438 1.890625 -3.265625 C 1.890625 -2.878906 1.972656 -2.523438 2.140625 -2.203125 C 2.316406 -1.890625 2.554688 -1.640625 2.859375 -1.453125 C 3.160156 -1.273438 3.5 -1.1875 3.875 -1.1875 Z M 3.875 -1.1875 "/></g></g></g></g></g></g></g></g></g></svg>